<?xml version="1.0" standalone="no"?>
<!DOCTYPE svg PUBLIC "-//W3C//DTD SVG 20010904//EN"
 "http://www.w3.org/TR/2001/REC-SVG-20010904/DTD/svg10.dtd">
<svg version="1.0" xmlns="http://www.w3.org/2000/svg"
 width="100" height="100" viewBox="0 0 1024.000000 1024.000000"
 preserveAspectRatio="xMidYMid meet">

<g transform="translate(0.000000,1024.000000) scale(0.100000,-0.100000)"
fill="currentColor" stroke="none">
<path d="M6204 5706 c-72 -72 -20 -186 86 -186 45 0 97 32 111 68 16 42 4 93
-31 125 -25 22 -40 27 -81 27 -45 0 -55 -4 -85 -34z"/>
<path d="M5480 5195 l0 -515 100 0 100 0 0 515 0 515 -100 0 -100 0 0 -515z"/>
<path d="M5830 5195 l0 -515 105 0 105 0 0 515 0 515 -105 0 -105 0 0 -515z"/>
<path d="M7713 5698 c2 -7 75 -125 161 -263 86 -137 155 -254 152 -261 -3 -7
-74 -115 -159 -240 -84 -126 -157 -235 -161 -241 -6 -10 20 -13 117 -13 l123
0 99 156 c55 85 103 158 107 160 4 3 23 -21 44 -53 20 -32 66 -104 102 -160
l66 -103 132 0 132 0 -170 253 -170 254 157 249 c87 137 160 255 162 262 4 9
-23 12 -114 12 l-120 0 -102 -165 c-57 -91 -106 -163 -110 -161 -4 3 -52 77
-107 165 l-99 161 -124 0 c-94 0 -122 -3 -118 -12z"/>
<path d="M3740 5190 l0 -510 248 0 c269 0 342 9 430 54 92 47 135 120 135 232
0 118 -53 199 -153 228 l-40 12 37 28 c57 43 91 92 104 151 33 149 -75 274
-263 305 -35 5 -161 10 -280 10 l-218 0 0 -510z m474 326 c45 -19 66 -52 66
-104 0 -100 -50 -132 -204 -132 l-106 0 0 125 0 125 105 0 c68 0 118 -5 139
-14z m56 -422 c90 -52 65 -205 -38 -234 -20 -5 -88 -10 -149 -10 l-113 0 0
136 0 136 133 -4 c110 -3 138 -7 167 -24z"/>
<path d="M1894 5646 c-3 -13 -4 -37 -2 -52 l3 -29 110 -6 c61 -4 214 -7 340
-8 l230 -1 0 -307 c0 -170 4 -332 8 -360 l8 -53 -330 0 c-323 0 -331 0 -341
-21 -14 -25 -4 -75 16 -83 9 -3 219 -5 467 -3 l452 2 90 28 c225 69 446 210
527 336 22 36 28 56 28 101 0 66 -13 87 -123 198 -105 107 -225 183 -367 232
-137 46 -184 50 -661 50 l-449 0 -6 -24z m1016 -127 c117 -27 265 -102 363
-185 43 -36 76 -68 74 -70 -2 -2 -30 5 -63 16 -155 54 -461 120 -558 120 -30
0 -33 17 -15 99 l10 50 52 -6 c29 -3 90 -14 137 -24z"/>
<path d="M7280 5510 l0 -90 -45 0 -45 0 0 -81 0 -81 44 4 44 3 4 -215 c3 -194
5 -219 24 -260 27 -56 58 -85 113 -105 45 -15 144 -20 200 -9 l31 7 0 78 0 79
-58 0 c-48 0 -62 4 -80 23 -20 21 -21 34 -24 210 l-3 187 83 0 82 0 0 80 0 79
-82 3 -81 3 2 88 2 87 -105 0 -106 0 0 -90z"/>
<path d="M4935 5430 c-112 -17 -215 -89 -251 -175 -26 -64 -25 -65 91 -65 102
0 106 1 115 24 16 43 57 66 117 66 90 0 122 -27 123 -102 l0 -48 -48 0 c-74 0
-212 -19 -266 -36 -114 -36 -176 -111 -176 -212 0 -62 13 -98 48 -135 45 -48
99 -70 186 -75 97 -6 172 10 225 48 42 31 44 31 55 -12 6 -28 6 -28 97 -28
l90 0 -3 283 c-3 320 -5 329 -90 401 -65 56 -198 84 -313 66z m191 -467 c-12
-89 -74 -143 -165 -143 -66 0 -97 17 -106 59 -14 63 30 98 148 116 136 21 131
23 123 -32z"/>
<path d="M6722 5429 c-168 -29 -258 -175 -189 -309 34 -67 79 -97 183 -121
157 -37 197 -52 213 -80 33 -60 -16 -113 -104 -113 -62 0 -99 21 -122 69 l-17
35 -93 0 -93 0 0 -27 c1 -83 82 -171 185 -198 88 -24 230 -17 302 14 99 44
150 127 140 228 -12 118 -72 168 -252 211 -70 17 -135 38 -146 48 -23 21 -25
76 -4 94 8 7 34 15 58 17 60 7 112 -17 134 -61 l17 -36 89 0 90 0 -7 42 c-13
78 -70 142 -152 172 -54 19 -168 26 -232 15z"/>
<path d="M6190 5055 l0 -375 103 0 102 0 -2 372 -2 373 -101 3 -100 3 0 -376z"/>
<path d="M1925 5399 c-209 -9 -390 -18 -403 -18 -21 -1 -23 -5 -20 -53 l3 -53
398 -5 c380 -5 399 -6 413 -24 16 -22 18 -83 4 -106 -8 -13 -57 -16 -305 -20
-316 -5 -314 -5 -315 -56 0 -49 15 -52 335 -63 165 -6 327 -13 360 -15 l60 -5
0 220 0 219 -75 -1 c-41 -1 -246 -10 -455 -20z"/>
</g>
</svg>
