<svg width="713" height="107" viewBox="0 0 713 107" fill="currentColor" xmlns="http://www.w3.org/2000/svg">
<path d="M470.4 3.39999C463.2 10.6 468.4 22 479 22C483.5 22 488.7 18.8 490.1 15.2C491.7 11 490.5 5.90001 487 2.70001C484.5 0.500012 483 0 478.9 0C474.4 0 473.4 0.399994 470.4 3.39999ZM398 54.5V106H418V3H398V54.5ZM433 54.5V106H454V3H433V54.5ZM621.3 4.20001C621.5 4.90001 628.8 16.7 637.4 30.5C646 44.2 652.9 55.9 652.6 56.6C652.3 57.3 645.2 68.1 636.7 80.6C628.3 93.2 621 104.1 620.6 104.7C620 105.7 622.6 106 632.3 106H644.6L654.5 90.4C660 81.9 664.8 74.6 665.2 74.4C665.6 74.1 667.5 76.5 669.6 79.7C671.6 82.9 676.2 90.1 679.8 95.7L686.4 106H712.8L695.8 80.7L678.8 55.3L694.5 30.4C703.2 16.7 710.5 4.90001 710.7 4.20001C711.1 3.30001 708.4 3 699.3 3H687.3L677.1 19.5C671.4 28.6 666.5 35.8 666.1 35.6C665.7 35.3 660.9 27.9 655.4 19.1L645.5 3H633.1C623.7 3 620.9 3.30001 621.3 4.20001ZM224 55V106H248.8C275.7 106 283 105.1 291.8 100.6C301 95.9 305.3 88.6 305.3 77.4C305.3 65.6 300 57.5 290 54.6L286 53.4L289.7 50.6C295.4 46.3 298.8 41.4 300.1 35.5C303.4 20.6 292.6 8.1 273.8 5C270.3 4.5 257.7 4 245.8 4H224V55ZM271.4 22.4C275.9 24.3 278 27.6 278 32.8C278 42.8 273 46 257.6 46H247V21H257.5C264.3 21 269.3 21.5 271.4 22.4ZM277 64.6C286 69.8 283.5 85.1 273.2 88C271.2 88.5 264.4 89 258.3 89H247V61.8L260.3 62.2C271.3 62.5 274.1 62.9 277 64.6ZM39.3998 9.39999C39.0998 10.7 38.9998 13.1 39.1998 14.6L39.4998 17.5L50.4998 18.1C56.5998 18.5 71.8998 18.8 84.4998 18.9L107.5 19V49.7C107.5 66.7 107.9 82.9 108.3 85.7L109.1 91H76.0998C43.7998 91 42.9998 91 41.9998 93.1C40.5998 95.6 41.5998 100.6 43.5998 101.4C44.4998 101.7 65.4998 101.9 90.2998 101.7L135.5 101.5L144.5 98.7C167 91.8 189.1 77.7 197.2 65.1C199.4 61.5 200 59.5 200 55C200 48.4 198.7 46.3 187.7 35.2C177.2 24.5 165.2 16.9 151 12C137.3 7.4 132.6 7 84.8998 7H39.9998L39.3998 9.39999ZM141 22.1C152.7 24.8 167.5 32.3 177.3 40.6C181.6 44.2 184.9 47.4 184.7 47.6C184.5 47.8 181.7 47.1 178.4 46C162.9 40.6 132.3 34 122.6 34C119.6 34 119.3 32.3 121.1 24.1L122.1 19.1L127.3 19.7C130.2 20 136.3 21.1 141 22.1ZM578 23V32H569V48.2L573.4 47.8L577.8 47.5L578.2 69C578.5 88.4 578.7 90.9 580.6 95C583.3 100.6 586.4 103.5 591.9 105.5C596.4 107 606.3 107.5 611.9 106.4L615 105.7V90H609.2C604.4 90 603 89.6 601.2 87.7C599.2 85.6 599.1 84.3 598.8 66.7L598.5 48H615V32.1L606.8 31.8L598.7 31.5L598.9 22.7L599.1 14H578V23ZM343.5 31C332.3 32.7 322 39.9 318.4 48.5C315.8 54.9 315.9 55 327.5 55C337.7 55 338.1 54.9 339 52.6C340.6 48.3 344.7 46 350.7 46C359.7 46 362.9 48.7 363 56.2V61H358.2C350.8 61 337 62.9 331.6 64.6C320.2 68.2 314 75.7 314 85.8C314 92 315.3 95.6 318.8 99.3C323.3 104.1 328.7 106.3 337.4 106.8C347.1 107.4 354.6 105.8 359.9 102C364.1 98.9 364.3 98.9 365.4 103.2C366 106 366 106 375.1 106H384.1L383.8 77.7C383.5 45.7 383.3 44.8 374.8 37.6C368.3 32 355 29.2 343.5 31ZM362.6 77.7C361.4 86.6 355.2 92 346.1 92C339.5 92 336.4 90.3 335.5 86.1C334.1 79.8 338.5 76.3 350.3 74.5C363.9 72.4 363.4 72.2 362.6 77.7ZM522.2 31.1C505.4 34 496.4 48.6 503.3 62C506.7 68.7 511.2 71.7 521.6 74.1C537.3 77.8 541.3 79.3 542.9 82.1C546.2 88.1 541.3 93.4 532.5 93.4C526.3 93.4 522.6 91.3 520.3 86.5L518.6 83H500V85.7C500.1 94 508.2 102.8 518.5 105.5C527.3 107.9 541.5 107.2 548.7 104.1C558.6 99.7 563.7 91.4 562.7 81.3C561.5 69.5 555.5 64.5 537.5 60.2C530.5 58.5 524 56.4 522.9 55.4C520.6 53.3 520.4 47.8 522.5 46C523.3 45.3 525.9 44.5 528.3 44.3C534.3 43.6 539.5 46 541.7 50.4L543.4 54H561.3L560.6 49.8C559.3 42 553.6 35.6 545.4 32.6C540 30.7 528.6 30 522.2 31.1ZM469 68.5V106H489.5L489.3 68.8L489.1 31.5L479 31.2L469 30.9V68.5Z" fill="currentColor"/>
<path d="M42.5005 34.1C21.6005 35 3.50047 35.9 2.20047 35.9C0.100475 36 -0.099525 36.4 0.200475 41.2L0.500478 46.5L40.3005 47C78.3005 47.5 80.2005 47.6 81.6005 49.4C83.2005 51.6 83.4005 57.7 82.0005 60C81.2005 61.3 76.3005 61.6 51.5005 62C19.9005 62.5 20.1005 62.5 20.0005 67.6C20.0005 72.5 21.5005 72.8 53.5005 73.9C70.0005 74.5 86.2005 75.2 89.5005 75.4L95.5005 75.9V32L88.0005 32.1C83.9005 32.2 63.4005 33.1 42.5005 34.1Z" fill="currentColor"/>
</svg>
